<svg xmlns="http://www.w3.org/2000/svg" width="512" height="512" viewBox="0 0 512 512"><circle fill="#103342" cx="256" cy="256" r="256"/><g stroke="#07161C" stroke-width="10" stroke-miterlimit="10" fill="none"><ellipse cx="261.7" cy="261.6" rx="215.7" ry="106.5"/><ellipse transform="matrix(.51 .86 -.86 .51 353.418 -96.887)" cx="261.7" cy="261.6" rx="215.7" ry="106.5"/><ellipse transform="matrix(-.51 .86 -.86 -.51 620.125 169.699)" cx="261.7" cy="261.6" rx="215.7" ry="106.5"/></g><path fill="#07161C" d="M233.3 285.9c-.2 1.4-1 3.6-4.1 3.6.1.1-7.9 0-7.9 0l-2.2 13h14.1c2.6 0 5.2 0 7.8.1v18.1h10.9v-17.9c3 .1 5.9.1 8.7.1v17.8h10.9v-18c18.3-1 31.1-5.7 32.6-22.8 1.3-13.8-5.2-20-15.6-22.5 6.3-3.2 10.2-8.9 9.3-18.3-1.2-12.9-12.3-17.2-26.4-18.4v-17.9h-10.9v17.4l-8.7.1v-17.5h-10.9v17.9c-2.4 0-4.7.1-6.9.1v-.1h-15v11.6s8-.2 7.9 0c4.4 0 5.8 2.6 6.3 4.8l.1 48.8zm49.3-8.3c0 13.5-23.1 12-30.5 12v-23.9c7.4 0 30.5-2.1 30.5 11.9zm-5-33.7c0 12.3-19.3 10.8-25.4 10.8v-21.7c6.1 0 25.4-1.9 25.4 10.9z"/><path fill="#D3F0FF" d="M227.6 281.8c-.2 1.4-1 3.6-4.1 3.6.1.1-7.9 0-7.9 0l-2.2 13h14.1c2.6 0 5.2 0 7.8.1v18.1h10.9v-17.9c3 .1 5.9.1 8.7.1v17.8h10.9v-18c18.3-1 31.1-5.7 32.6-22.8 1.3-13.8-5.2-20-15.6-22.5 6.3-3.2 10.2-8.9 9.3-18.3-1.2-12.9-12.3-17.2-26.4-18.4v-17.9h-10.9v17.4l-8.7.1v-17.5h-10.9v17.9c-2.4 0-4.7.1-6.9.1v-.1h-15v11.6s8-.2 7.9 0c4.4 0 5.8 2.6 6.3 4.8l.1 48.8zm49.3-8.3c0 13.5-23.1 12-30.5 12v-23.9c7.4-.1 30.5-2.2 30.5 11.9zm-5-33.8c0 12.3-19.3 10.8-25.4 10.8v-21.7c6.1.1 25.4-1.9 25.4 10.9z"/><g stroke="#31A6E0" stroke-width="10" stroke-miterlimit="10" fill="none"><ellipse cx="256" cy="257.4" rx="215.7" ry="106.5"/><ellipse transform="matrix(.51 .86 -.86 .51 347.042 -94.023)" cx="256" cy="257.4" rx="215.7" ry="106.5"/><ellipse transform="matrix(-.51 .86 -.86 -.51 607.941 168.321)" cx="256" cy="257.4" rx="215.7" ry="106.5"/></g></svg>