<svg xmlns="http://www.w3.org/2000/svg" width="246.2" height="429.1" viewBox="0 0 246.2 429.1"><path fill="#31A6E0" d="M101.6 243.1l-13.6-67.9c-57.4 8-96.1 71.1-86.4 141 9.7 69.9 64.1 120 121.6 112 57.4 8 111.9-42.2 121.6-112 9.7-69.9-29-133-86.4-141l-27.1 134.6-29.7-66.7z"/><path fill="#29CB41" d="M131.2 309.8c-3.3-14.4-4-30.7-2-48.7 5.8-50.8 31.6-102.7 46.4-129 3.6-6.3 8.2-12.9 13.1-19.9 13.6-19.4 29.1-41.3 24.4-65.1-2.8-14.2-12.5-26.7-28.9-37.2 0 0-.1 0-.1-.1l-.6-.3c-16.4-10.2-36.5-12.3-56.8-5.8-21.6 6.9-39.8 22.7-47.4 41.4-3.1 7.7.5 16.4 8.2 19.6 7.7 3.1 16.4-.5 19.6-8.2 4.3-10.5 15.6-20 28.7-24.2.2-.1.4-.1.7-.2-7.5 12.2-10.2 26.5-7.2 39.1 1.6 6.9 7.8 11.5 14.6 11.5 1.2 0 2.3-.1 3.5-.4 8.1-1.9 13-10 11.1-18.1-1.3-5.4.7-12.8 4.9-18.5 1.7-2.3 4.9-5.7 9.3-7.3 6.4 4.8 10.1 9.7 11 14.5 2.2 11.2-8.8 26.8-19.5 42-5.1 7.3-10.4 14.8-14.7 22.4-14.6 25.9-38.9 74.7-47.9 125.7"/></svg>