<svg xmlns="http://www.w3.org/2000/svg" width="512" height="512" viewBox="0 0 512 512"><circle fill="#103342" cx="256" cy="256" r="256"/><ellipse stroke="#07161C" stroke-width="10" stroke-miterlimit="10" cx="269" cy="261.6" rx="215.7" ry="106.5" fill="none"/><ellipse transform="matrix(.51 .86 -.86 .51 357.022 -103.209)" stroke="#07161C" stroke-width="10" stroke-miterlimit="10" cx="269" cy="261.6" rx="215.7" ry="106.5" fill="none"/><ellipse transform="matrix(-.51 .86 -.86 -.51 631.218 163.377)" stroke="#07161C" stroke-width="10" stroke-miterlimit="10" cx="269" cy="261.6" rx="215.7" ry="106.5" fill="none"/><path fill="#BAD4E0" d="M284 216.5h15v11.6s-8-.2-7.9 0"/><ellipse stroke="#31A6E0" stroke-width="10" stroke-miterlimit="10" cx="263.3" cy="257.4" rx="215.7" ry="106.5" fill="none"/><ellipse transform="matrix(.51 .86 -.86 .51 350.646 -100.346)" stroke="#31A6E0" stroke-width="10" stroke-miterlimit="10" cx="263.3" cy="257.4" rx="215.7" ry="106.5" fill="none"/><ellipse transform="matrix(-.51 .86 -.86 -.51 619.033 161.999)" stroke="#31A6E0" stroke-width="10" stroke-miterlimit="10" cx="263.3" cy="257.4" rx="215.7" ry="106.5" fill="none"/><path fill="#BAD4E0" d="M296.8 285"/><path fill="#07161C" d="M304.6 302.5h-25.8v18h-10.9v-17.8c-2.8 0-5.7 0-8.7-.1v17.9h-10.9v-18.1c-2.5 0-5.1-.1-7.8-.1h-14.1l2.2-13s8 .1 7.9 0c3.1 0 3.9-2.2 4.1-3.6v-48.9c-.4-2.2-1.8-4.8-6.3-4.8.1-.1-7.9 0-7.9 0v-11.6h15v.1c2.3 0 4.6 0 6.9-.1v-17.9h10.9v17.5c2.9-.1 5.8-.1 8.7-.1v-17.4h10.9v17.9h25.9v11.6h-45.2v22.5h36.6v11h-36.6v23.5h43l2.1 13.5"/><path fill="#D3F0FF" d="M298.9 298.4h-25.8v18h-10.9v-17.8c-2.8 0-5.7 0-8.7-.1v17.9h-10.9v-18.1c-2.5 0-5.1-.1-7.8-.1h-14.1l2.2-13s8 .1 7.9 0c3.1 0 3.9-2.2 4.1-3.6v-48.9c-.4-2.2-1.8-4.8-6.3-4.8.1-.1-7.9 0-7.9 0v-11.6h15v.1c2.3 0 4.6 0 6.9-.1v-17.9h10.9v17.5c2.9-.1 5.8-.1 8.7-.1v-17.4h10.9v17.9h25.9v11.6h-45.2v22.5h36.6v11h-36.6v23.5h43l2.1 13.5"/></svg>