<svg xmlns="http://www.w3.org/2000/svg" width="451.4" height="406.8" viewBox="0 0 451.4 406.8"><ellipse stroke="#282828" stroke-width="20" stroke-miterlimit="10" cx="225.7" cy="203.4" rx="215.7" ry="106.5" fill="none"/><ellipse transform="matrix(.51 .86 -.86 .51 285.719 -94.436)" stroke="#282828" stroke-width="20" stroke-miterlimit="10" cx="225.7" cy="203.4" rx="215.7" ry="106.5" fill="none"/><ellipse transform="matrix(-.51 .86 -.86 -.51 515.737 112.876)" stroke="#282828" stroke-width="20" stroke-miterlimit="10" cx="225.7" cy="203.4" rx="215.7" ry="106.5" fill="none"/><path fill="#282828" d="M253.1 235.9h-20.4v14.3h-8.6v-14.1c-2.2 0-4.5 0-6.9-.1v14.1h-8.6v-14.3c-2 0-4.1 0-6.1-.1h-11.2l1.7-10.3s6.4.1 6.2 0c2.4 0 3.1-1.8 3.2-2.8v-38.7c-.3-1.7-1.5-3.8-4.9-3.8.1-.1-6.2 0-6.2 0v-9.2h11.9c1.8 0 3.6 0 5.5-.1v-14.1h8.6v13.8l6.9-.1v-13.8h8.6v14.1h20.5v9.2h-35.7v17.8h29v8.7h-29v18.6h34l1.5 10.9"/></svg>