<svg xmlns="http://www.w3.org/2000/svg" width="512" height="512" viewBox="0 0 512 512"><circle fill="#E6E6E6" cx="256" cy="256" r="256"/><ellipse stroke="#31A6E0" stroke-width="20" stroke-miterlimit="10" cx="256" cy="256" rx="215.7" ry="106.5" fill="none"/><ellipse transform="matrix(.51 .86 -.86 .51 345.821 -94.719)" stroke="#31A6E0" stroke-width="20" stroke-miterlimit="10" cx="256" cy="256" rx="215.7" ry="106.5" fill="none"/><ellipse transform="matrix(-.51 .86 -.86 -.51 606.72 166.179)" stroke="#31A6E0" stroke-width="20" stroke-miterlimit="10" cx="256" cy="256" rx="215.7" ry="106.5" fill="none"/><path fill="#103342" d="M283.4 288.5h-20.4v14.3h-8.6v-14.1c-2.2 0-4.5 0-6.9-.1v14.1h-8.6v-14.3c-2 0-4.1 0-6.1-.1h-11.2l1.7-10.3s6.4.1 6.2 0c2.4 0 3.1-1.8 3.2-2.8v-38.7c-.3-1.7-1.5-3.8-4.9-3.8.1-.1-6.2 0-6.2 0v-9.2h11.9c1.8 0 3.6 0 5.5-.1v-14.1h8.6v13.8l6.9-.1v-13.8h8.6v14.1h20.5v9.2h-35.7v17.8h29v8.7h-29v18.6h34l1.5 10.9"/></svg>