<?xml version="1.0" encoding="utf-8"?>
<!-- Generator: Adobe Illustrator 18.1.1, SVG Export Plug-In . SVG Version: 6.00 Build 0)  -->
<!DOCTYPE svg PUBLIC "-//W3C//DTD SVG 1.1//EN" "http://www.w3.org/Graphics/SVG/1.1/DTD/svg11.dtd">
<svg version="1.1" id="Layer_1" xmlns="http://www.w3.org/2000/svg" xmlns:xlink="http://www.w3.org/1999/xlink" x="0px" y="0px"
	 viewBox="0 0 512 512" enable-background="new 0 0 512 512" xml:space="preserve">
<g>
	<circle fill="#103342" cx="256" cy="256" r="256"/>
	<ellipse fill="none" stroke="#07161C" stroke-width="10" stroke-miterlimit="10" cx="269" cy="261.6" rx="215.7" ry="106.5"/>
	
		<ellipse transform="matrix(0.5096 0.8604 -0.8604 0.5096 357.022 -103.2094)" fill="none" stroke="#07161C" stroke-width="10" stroke-miterlimit="10" cx="269" cy="261.6" rx="215.7" ry="106.5"/>
	
		<ellipse transform="matrix(-0.5096 0.8604 -0.8604 -0.5096 631.2182 163.3767)" fill="none" stroke="#07161C" stroke-width="10" stroke-miterlimit="10" cx="269" cy="261.6" rx="215.7" ry="106.5"/>
	<path fill="#BAD4E0" d="M284,216.5l15,0l0,11.6c0,0-8-0.2-7.9,0"/>
	<ellipse fill="none" stroke="#31A6E0" stroke-width="10" stroke-miterlimit="10" cx="263.3" cy="257.4" rx="215.7" ry="106.5"/>
	
		<ellipse transform="matrix(0.5096 0.8604 -0.8604 0.5096 350.6459 -100.3462)" fill="none" stroke="#31A6E0" stroke-width="10" stroke-miterlimit="10" cx="263.3" cy="257.4" rx="215.7" ry="106.5"/>
	
		<ellipse transform="matrix(-0.5096 0.8604 -0.8604 -0.5096 619.0333 161.9987)" fill="none" stroke="#31A6E0" stroke-width="10" stroke-miterlimit="10" cx="263.3" cy="257.4" rx="215.7" ry="106.5"/>
	<g>
		<path fill="#BAD4E0" d="M296.8,285"/>
		<path fill="#07161C" d="M304.6,302.5h-25.8l0,18l-10.9,0l0-17.8c-2.8,0-5.7,0-8.7-0.1l0,17.9l-10.9,0l0-18.1
			c-2.5,0-5.1-0.1-7.8-0.1l-14.1,0l2.2-13c0,0,8,0.1,7.9,0c3.1,0,3.9-2.2,4.1-3.6l0-48.9c-0.4-2.2-1.8-4.8-6.3-4.8
			c0.1-0.1-7.9,0-7.9,0l0-11.6l15,0l0,0.1c2.3,0,4.6,0,6.9-0.1l0-17.9l10.9,0l0,17.5c2.9-0.1,5.8-0.1,8.7-0.1l0-17.4l10.9,0l0,17.9
			h25.9c0,0,0,12.2,0,11.6h-45.2l0,22.5h36.6v11h-36.6l0,23.5l43,0L304.6,302.5"/>
		<path fill="#D3F0FF" d="M298.9,298.4h-25.8l0,18l-10.9,0l0-17.8c-2.8,0-5.7,0-8.7-0.1l0,17.9l-10.9,0l0-18.1
			c-2.5,0-5.1-0.1-7.8-0.1l-14.1,0l2.2-13c0,0,8,0.1,7.9,0c3.1,0,3.9-2.2,4.1-3.6l0-48.9c-0.4-2.2-1.8-4.8-6.3-4.8
			c0.1-0.1-7.9,0-7.9,0l0-11.6l15,0l0,0.1c2.3,0,4.6,0,6.9-0.1l0-17.9l10.9,0l0,17.5c2.9-0.1,5.8-0.1,8.7-0.1l0-17.4l10.9,0l0,17.9
			H299c0,0,0,12.2,0,11.6h-45.2l0,22.5h36.6v11h-36.6l0,23.5l43,0L298.9,298.4"/>
	</g>
</g>
<g>
</g>
<g>
</g>
<g>
</g>
<g>
</g>
<g>
</g>
<g>
</g>
<g>
</g>
<g>
</g>
<g>
</g>
<g>
</g>
<g>
</g>
<g>
</g>
<g>
</g>
<g>
</g>
<g>
</g>
</svg>
