<svg xmlns="http://www.w3.org/2000/svg" width="331" height="436.3" viewBox="0 0 331 436.3"><g fill="#323232"><path d="M331 209.9c0-8.4-6.8-15.1-15.1-15.1s-15.1 6.8-15.1 15.1c0 74.6-60.7 135.2-135.2 135.2-74.6 0-135.2-60.7-135.2-135.2 0-8.4-6.8-15.1-15.1-15.1s-15.3 6.7-15.3 15.1c0 81.2 58.7 148.9 135.5 162.9v22.6h-67v40.9h194v-40.9h-67v-22.6c77.2-14 135.5-81.7 135.5-162.9zM158.5 312.5h14c52.5 0 95.2-42.7 95.2-95.2v-122.1c0-52.5-42.7-95.2-95.2-95.2h-14c-52.5 0-95.2 42.7-95.2 95.2v122.1c0 52.5 42.7 95.2 95.2 95.2zm-65.2-217.3c0-35.9 29.2-65.2 65.2-65.2h14c35.9 0 65.2 29.2 65.2 65.2v122.1c0 35.9-29.2 65.2-65.2 65.2h-14c-35.9 0-65.2-29.2-65.2-65.2v-122.1z"/></g></svg>