<svg xmlns="http://www.w3.org/2000/svg" width="316.9" height="343.2" viewBox="0 0 316.9 343.2"><ellipse stroke="#31A6E0" stroke-width="10.42" stroke-miterlimit="10" cx="156.6" cy="106" rx="112.4" ry="55.5" fill="none"/><ellipse transform="matrix(.51 .86 -.86 .51 167.985 -82.753)" stroke="#31A6E0" stroke-width="10.42" stroke-miterlimit="10" cx="156.6" cy="106" rx="112.4" ry="55.5" fill="none"/><ellipse transform="matrix(-.51 .86 -.86 -.51 327.566 25.258)" stroke="#31A6E0" stroke-width="10.42" stroke-miterlimit="10" cx="156.6" cy="106" rx="112.4" ry="55.5" fill="none"/><path fill="#103342" d="M170.9 122.9h-10.7v7.4h-4.5v-7.3h-3.6v7.4h-4.5v-7.4h-9l.9-5.3s3.3.1 3.3 0c1.3 0 1.6-.9 1.7-1.5v-20.2c-.2-.9-.8-2-2.6-2 .1-.1-3.3 0-3.3 0v-4.8h9.1v-7.4h4.5v7.2h3.6v-7.2h4.5v7.4h10.7v4.8h-18.6v9.3h15.1v4.5h-15.1v9.7h17.7l.8 5.4"/><g fill="#103342"><path d="M36.2 313.8h-26.2c.2 2.4 1.3 4.4 3.3 5.9 2.1 1.5 4.4 2.2 7 2.2 4.2 0 7.4-1.3 9.6-4l4 4.4c-3.6 3.7-8.3 5.6-14.1 5.6-4.7 0-8.7-1.6-12-4.7-3.3-3.1-4.9-7.3-4.9-12.6s1.7-9.4 5-12.5c3.4-3.1 7.3-4.7 11.9-4.7 4.5 0 8.4 1.4 11.6 4.1 3.2 2.7 4.8 6.5 4.8 11.3v5zm-26.2-5.5h19.2c0-2.8-.9-5-2.6-6.5-1.8-1.5-3.9-2.3-6.5-2.3s-4.9.8-6.9 2.4c-2.2 1.5-3.2 3.7-3.2 6.4zM54.8 327.4h-7v-46.7h7v46.7zM99.8 313.8h-26.2c.2 2.4 1.3 4.4 3.3 5.9 2.1 1.5 4.4 2.2 7 2.2 4.2 0 7.4-1.3 9.6-4l4 4.4c-3.6 3.7-8.3 5.6-14.1 5.6-4.7 0-8.7-1.6-12-4.7-3.3-3.1-4.9-7.3-4.9-12.6s1.7-9.4 5-12.5c3.4-3.1 7.3-4.7 11.9-4.7 4.5 0 8.4 1.4 11.6 4.1 3.2 2.7 4.8 6.5 4.8 11.3v5zm-26.2-5.5h19.2c0-2.8-.9-5-2.6-6.5-1.8-1.5-3.9-2.3-6.5-2.3s-4.9.8-6.9 2.4c-2.1 1.5-3.2 3.7-3.2 6.4zM126.2 327.9c-4.7 0-8.7-1.6-12-4.7-3.4-3.2-5-7.3-5-12.4 0-5.1 1.7-9.3 5.2-12.5 3.5-3.2 7.8-4.8 12.8-4.8 5 0 9.3 1.7 12.8 5.2l-4.1 5.1c-2.9-2.5-5.8-3.8-8.7-3.8-2.9 0-5.5 1-7.6 2.9-2.2 1.9-3.2 4.5-3.2 7.5s1.1 5.7 3.2 7.8 4.8 3.2 7.9 3.2c3.1 0 6.1-1.4 8.8-4.3l4.1 4.5c-4.2 4.3-8.9 6.3-14.2 6.3zM160 299.6v17c0 1.6.4 2.9 1.3 3.8.8.9 2 1.4 3.5 1.4s3-.7 4.3-2.2l2.9 5c-2.5 2.2-5.2 3.3-8.2 3.3-3 0-5.6-1-7.7-3.1-2.1-2.1-3.2-4.9-3.2-8.4v-16.8h-4.2v-5.6h4.2v-10.5h7v10.5h8.8v5.7h-8.7zM198.9 300.6c-3.5 0-6.1 1.1-7.9 3.4-1.8 2.3-2.6 5.3-2.6 9.1v14.3h-7v-33.4h7v6.7c1.1-2.1 2.7-3.8 4.6-5.2 1.9-1.3 4-2 6.2-2.1l.1 7.1c-.1.1-.2.1-.4.1zM233.5 312.1v-18.1h7v33.4h-7v-6.1c-1.1 2.1-2.7 3.7-4.7 4.8-2 1.2-4.1 1.8-6.4 1.8-3.8 0-6.8-1.2-9.1-3.5s-3.5-5.6-3.5-10v-20.4h7v18.4c0 6.2 2.6 9.2 7.7 9.2 2.4 0 4.5-.8 6.4-2.4 1.7-1.6 2.6-4 2.6-7.1zM261.6 309.3v18.1h-7v-33.4h7v6.1c1-2.1 2.5-3.7 4.6-4.8 2-1.2 4.2-1.8 6.6-1.8 5.3 0 8.9 2.2 10.8 6.5 3.3-4.4 7.4-6.5 12.4-6.5 3.8 0 6.8 1.2 9.1 3.5s3.5 5.6 3.5 10v20.5h-7v-18.4c0-6.2-2.6-9.2-7.7-9.2-2.4 0-4.5.8-6.3 2.3-1.8 1.5-2.7 3.8-2.8 6.7v18.6h-7v-18.4c0-3.2-.6-5.5-1.7-7s-2.9-2.2-5.3-2.2-4.5.8-6.4 2.4c-1.9 1.6-2.8 3.9-2.8 7z"/></g></svg>