<svg xmlns="http://www.w3.org/2000/svg" width="448" height="448" viewBox="0 0 448 448"><g fill="#323232"><path d="M288 0v160h160v-160h-160zm128 128h-96v-96h96v96zM64 64h32v32h-32zM352 64h32v32h-32zM256 64h-32v-32h32v-32h-64v96h32v32h32zM160 160v-160h-160v160h160zm-128-128h96v96h-96v-96zM0 192v64h32v-32h32v-32zM224 224h32v-64h-32v-32h-32v64h32zM352 192h32v32h-32zM416 192h32v32h-32zM320 256v32h32v32h32v-64h-32v-32h-32v-32h-32v32h-32v32zM384 224h32v32h-32zM0 288v160h160v-160h-160zm128 128h-96v-96h96v96zM256 256h-32v-32h-32v-32h-96v32h-32v32h64v-32h32v32h32v32h32v32h32zM288 288h32v32h-32zM416 256h32v64h-32zM320 320h32v32h-32zM384 320h32v32h-32zM64 352h32v32h-32zM320 384v-32h-32v-32h-32v32h-32v-32h-32v64h32v32h32v-32zM352 384h-32v32h32v32h32v-96h-32zM416 352h32v32h-32zM192 416h32v32h-32zM256 416h64v32h-64zM416 416h32v32h-32z"/></g></svg>