<svg xmlns="http://www.w3.org/2000/svg" width="425.2" height="430" viewBox="0 0 425.2 430"><g fill="#323232"><path d="M216.2.9c-5.9-2.2-12.5-.5-16.6 4.3l-95.5 110.8h-104.1v198h104.1l95.5 110.8c2.9 3.4 7.1 5.2 11.4 5.2 1.7 0 3.5-.3 5.2-.9 5.9-2.2 9.8-7.8 9.8-14.1v-400c0-6.3-3.9-11.9-9.8-14.1zm-186.2 145.1h66v138h-66v-138zm165 228.6l-69-81.2v-156.8l69-81.2v319.2zM260.1 385.1c-8.3 0-15.1-6.8-15.1-15.1s6.8-15.1 15.1-15.1c74.4 0 134.9-60.5 134.9-134.9s-60.5-134.9-134.9-134.9c-8.3 0-15.1-6.8-15.1-15.1s6.8-15.1 15.1-15.1c91 0 165.1 74.1 165.1 165.1s-74.1 165.1-165.1 165.1zM268.1 322c-8.3 0-15-6.7-15-15s6.7-15 15-15c35.8 0 65-29.2 65-65v-14c0-35.8-29.2-65-65-65-8.3 0-15-6.7-15-15s6.7-15 15-15c52.4 0 95 42.6 95 95v14c0 52.4-42.6 95-95 95z"/></g></svg>