<svg xmlns="http://www.w3.org/2000/svg" width="394.1" height="292.1" viewBox="0 0 394.1 292.1"><path fill="#217199" d="M376.8 154.3c-7-11.9-22.3-15.8-34.2-8.8s-15.8 22.3-8.8 34.2c5.8 9.9 14.7 28.5 8.1 41.9-6.2 12.7-26.8 20.3-55.1 20.5h-.8c-34.8 0-77.8-11.3-118.2-30.9l-6.6-3.3 26.1-18.2-141.1-23 82 117 5.4-33.9c4 2.1 8.1 4.2 12.2 6.2 47.7 23.2 97.3 36 140.1 36h1.1c49.2-.3 84.7-17.5 99.8-48.6 12.5-25.4 8.9-57.1-10-89.1z"/><path fill="#31A6E0" d="M53.5 108.2c-4.3-11.3-4.7-20.7-1.3-27.7 6.2-12.7 26.8-20.3 55.1-20.5h.8c27 0 59 6.8 90.9 19.1l-24 20.9 142.7 7.8-93.9-107.8-1.8 34.3c-39.7-16-79.7-24.5-114.9-24.3-49.2.2-84.6 17.4-99.8 48.5-9.6 19.7-9.8 42.9-.6 67.3 3.8 10 13.3 16.2 23.4 16.2 2.9 0 5.9-.5 8.8-1.6 13-4.9 19.5-19.3 14.6-32.2z"/></svg>