<svg xmlns="http://www.w3.org/2000/svg" width="298.2" height="355.6" viewBox="0 0 298.2 355.6"><path fill="#323232" d="M294.61 228.543l-19.439-6.658c.577-8.335-.644-16.53-3.282-24.07l16.91-11.723 3.069-2.18-1.568-3.422c-1.78-3.79-3.901-7.464-6.293-10.9l-2.18-3.069-3.422 1.568-18.678 8.661c-5.307-6.081-11.794-11.235-19.204-14.877l3.953-20.164.816-3.819-3.715-1.203c-1.713-.562-3.541-1.466-5.956-2.114-2.415-.647-4.424-.875-6.215-1.148l-3.819-.816-1.203 3.715-6.658 19.439c-8.335-.577-16.53.644-24.07 3.282l-13.903-19.979-17.391 10.041 10.351 22.03c-6.081 5.307-11.235 11.794-14.877 19.204l-20.286-3.883-3.819-.816-1.203 3.715c-.562 1.713-1.466 3.541-2.114 5.956-.647 2.415-.875 4.424-1.148 6.215l-.816 3.819 3.715 1.203 19.439 6.658c-.577 8.335.644 16.53 3.282 24.07l-16.91 11.723-3.069 2.18 1.568 3.422c1.78 3.79 3.901 7.464 6.293 10.9l2.18 3.069 3.422-1.568 18.607-8.783c5.307 6.081 11.794 11.235 19.204 14.877l-3.953 20.164-.816 3.819 3.715 1.203c1.713.562 3.541 1.466 5.956 2.114 2.415.647 4.424.875 6.215 1.148l3.819.816 1.203-3.715 6.658-19.439c8.335.577 16.53-.644 24.07-3.282l11.723 16.91 2.18 3.069 3.422-1.568c3.79-1.78 7.464-3.901 10.9-6.293l3.069-2.18-1.568-3.422-8.783-18.607c6.081-5.307 11.235-11.794 14.877-19.204l20.164 3.953 3.819.816 1.203-3.715c.562-1.713 1.466-3.541 2.114-5.956.647-2.415.875-4.424 1.148-6.215l.816-3.819-3.522-1.151zm-55.141-4.008c-3.856 14.392-18.676 22.948-33.068 19.092s-22.948-18.676-19.092-33.068c3.856-14.392 18.676-22.948 33.068-19.092 14.392 3.856 22.948 18.676 19.092 33.068z"/><path fill="#323232" d="M128.734 2.07c-2.608-.699-4.837-.882-6.698-1.277l-4.135-.797-1.377 3.979-7.291 21.029c-9.037-.661-17.915.79-26.112 3.563l-15.015-21.623-18.861 10.889 11.218 23.815c-6.5 5.712-12.1 12.701-16.142 20.832l-21.98-4.13-4.135-.797-1.377 3.979c-.685 1.783-1.544 3.831-2.243 6.439-.699 2.608-.882 4.837-1.277 6.698l-.797 4.135 3.979 1.377 21.029 7.291c-.661 9.037.79 17.915 3.563 26.112l-18.309 12.694-3.314 2.321 1.709 3.667c2.018 4.061 4.255 8.076 6.859 11.88l2.321 3.314 3.667-1.709 20.148-9.509c5.712 6.5 12.701 12.1 20.832 16.142l-4.2 21.858-.797 4.135 3.979 1.377c1.783.685 3.831 1.544 6.439 2.243 2.608.699 4.837.882 6.698 1.277l4.135.797 1.377-3.979 7.291-21.029c9.037.661 17.915-.79 26.112-3.563l12.694 18.309 2.321 3.314 3.667-1.709c4.061-2.018 8.076-4.255 11.88-6.859l3.314-2.321-1.709-3.667-9.509-20.148c6.5-5.712 12.1-12.701 16.142-20.832l21.858 4.2 4.135.797 1.377-3.979c.685-1.783 1.544-3.831 2.243-6.439.699-2.608.882-4.837 1.277-6.698l.797-4.135-3.979-1.377-21.029-7.291c.661-9.037-.79-17.915-3.563-26.112l18.309-12.694 3.314-2.321-1.683-3.764c-2.018-4.061-4.255-8.076-6.859-11.88l-2.321-3.314-3.667 1.709-20.148 9.509c-5.712-6.5-12.701-12.1-20.832-16.142l4.2-21.858.797-4.135-3.979-1.377c-1.809-.588-3.831-1.544-6.342-2.217zm-16.513 61.626c15.648 4.193 24.911 20.237 20.718 35.885-4.193 15.648-20.237 24.911-35.885 20.718s-24.911-20.237-20.718-35.885c4.193-15.648 20.237-24.911 35.885-20.718z"/><path fill="#323232" d="M72.4 205c-4.1.2-8.1.8-12 1.6h-.3c-2.9.6-5.8 1.4-8.6 2.4-4 1.3-7.8 3-11.5 5l5.5 26.1c-4 3-7.7 6.4-10.7 10.5l-25.9-5.2c-2.1 4.1-4.1 8.1-5.5 12.6-1.9 6-3.1 12.6-3.4 19.4l25.6 8.6c.6 5 1.7 9.9 3.7 14.4l-17.8 19.9c2.3 3.7 4.9 7.2 7.8 10.5l5.2 5c3.2 3 6.7 5.7 10.5 8.1l19.9-17.9c2.4 1.1 4.7 1.9 7.3 2.6 2.5.7 5.1 1.3 7.6 1.6l8.4 25.4c4.1-.2 8.1-.8 12-1.6h.3c2.9-.6 5.8-1.4 8.6-2.4 4-1.3 7.8-3 11.5-5l-5.5-26.1c4-3 7.7-6.4 10.7-10.5l25.9 5.2c2.1-4.1 4.1-8.1 5.5-12.6 1.9-6.2 3.1-12.9 3.4-19.6l-25.6-8.6c-.6-5-1.7-9.9-3.7-14.4l17.8-19.9c-2.3-3.7-4.9-7.2-7.8-10.5l-5.2-5c-3.2-3-6.7-5.7-10.5-8.1l-19.9 17.8c-2.4-1.1-4.7-1.9-7.3-2.6-2.5-.7-5.1-1.3-7.6-1.6l-8.4-25.1zm1.1 58.5c.9-.1 1.9-.1 2.9 0 1.1.1 2.3.2 3.4.5 8.9 2.4 14.2 11.7 11.8 20.7-2.4 8.9-11.7 14.2-20.7 11.8-8.9-2.4-14.2-11.7-11.8-20.7 1.8-6.8 7.7-11.5 14.4-12.3z"/></svg>