<svg xmlns="http://www.w3.org/2000/svg" width="345" height="345" viewBox="0 0 345 345"><circle fill="#323232" cx="172.5" cy="172.5" r="172.5"/><path fill="#0D0D0D" d="M160 80c5.7-5.3 12.4-8 20.1-8 7.8 0 14.5 2.7 20.1 8 5.6 5.3 8.3 11.7 8.3 19.3 0 3.7-.8 9.3-2.3 16.6-1.6 7.4-3.3 14.9-5.1 22.6-2.1 8.4-4.4 18.8-7 31.2-2.6 12.4-5.4 27.9-8.3 46.6h-11.3c-2.9-18.5-5.7-34-8.3-46.5-2.6-12.5-5-23-7-31.4-2.1-8.9-3.9-16.6-5.3-23.2-1.4-6.6-2.1-11.9-2.1-15.9-.3-7.6 2.6-14 8.2-19.3zm.2 161.8c5.6-5.4 12.2-8.1 19.7-8.1 7.6 0 14.2 2.7 19.8 8.1 5.6 5.4 8.4 11.8 8.4 19.3 0 7.4-2.8 13.8-8.4 19.1-5.6 5.3-12.2 8-19.8 8-7.5 0-14.1-2.7-19.7-8s-8.4-11.7-8.4-19.1c0-7.4 2.8-13.8 8.4-19.3z"/><path fill="#fff" d="M152.5 72.4c5.7-5.3 12.4-8 20.1-8 7.8 0 14.5 2.7 20.1 8 5.6 5.3 8.3 11.7 8.3 19.3 0 3.7-.8 9.3-2.3 16.6-1.6 7.4-3.3 14.9-5.1 22.6-2.1 8.4-4.4 18.8-7 31.2-2.6 12.4-5.4 27.9-8.3 46.6h-11.3c-2.9-18.5-5.7-34-8.3-46.5-2.6-12.5-5-23-7-31.4-2.1-8.9-3.9-16.6-5.3-23.2-1.4-6.6-2.1-11.9-2.1-15.9-.3-7.6 2.5-14 8.2-19.3zm.2 161.8c5.6-5.4 12.2-8.1 19.7-8.1 7.6 0 14.2 2.7 19.8 8.1 5.6 5.4 8.4 11.8 8.4 19.3 0 7.4-2.8 13.8-8.4 19.1-5.6 5.3-12.2 8-19.8 8-7.5 0-14.1-2.7-19.7-8s-8.4-11.7-8.4-19.1c0-7.4 2.8-13.8 8.4-19.3z"/></svg>