<svg xmlns="http://www.w3.org/2000/svg" width="413.2" height="413.6" viewBox="0 0 413.2 413.6"><g fill="#323232"><path d="M364 49.2c-31.7-31.7-73.9-49.2-118.7-49.2s-87 17.5-118.8 49.2c-31.7 31.7-49.2 73.9-49.2 118.8 0 36 11.2 70.2 32.1 98.7l-109.4 109.4 37.5 37.5 109.5-109.5c28.4 20.6 62.5 31.8 98.3 31.8 44.9 0 87-17.5 118.8-49.2 31.7-31.7 49.2-73.9 49.2-118.8-.1-44.8-17.5-87-49.3-118.7zm-21.2 216.3c-26.1 26.1-60.7 40.4-97.5 40.4s-71.5-14.3-97.5-40.4c-26.1-26.1-40.4-60.7-40.4-97.5s14.3-71.5 40.4-97.5c26-26.2 60.6-40.5 97.5-40.5s71.5 14.3 97.5 40.4c26.1 26.1 40.4 60.7 40.4 97.5s-14.3 71.5-40.4 97.6zM265.5 97.1h-39v52h-52v39h52v52h39v-52h52v-39h-52z"/></g></svg>