<?xml version="1.0" encoding="utf-8"?>
<!-- Generator: Adobe Illustrator 18.1.1, SVG Export Plug-In . SVG Version: 6.00 Build 0)  -->
<!DOCTYPE svg PUBLIC "-//W3C//DTD SVG 1.1//EN" "http://www.w3.org/Graphics/SVG/1.1/DTD/svg11.dtd">
<svg version="1.1" id="Layer_1" xmlns="http://www.w3.org/2000/svg" xmlns:xlink="http://www.w3.org/1999/xlink" x="0px" y="0px"
	 viewBox="0 0 612 792" enable-background="new 0 0 612 792" xml:space="preserve">
<g>
	<path d="M306.4,396.4V90c42.7,0,82.7,8.7,119.3,24.4s69.6,38.3,97.5,65.3c29.6,29.6,52.2,64.4,67,101
		c14.8,36.6,22.6,75.7,22.6,114.9c0,42.7-8.7,82.7-24.4,119.3c-15.7,36.6-38.3,69.6-65.3,97.5c-29.6,29.6-64.4,52.2-101,67
		c-36.6,14.8-75.7,22.6-114.9,22.6c-42.7,0-82.7-8.7-119.3-24.4c-36.6-15.7-69.6-38.3-97.5-65.3L306.4,396.4z"/>
</g>
</svg>
