<?xml version="1.0" encoding="utf-8"?>
<!-- Generator: Adobe Illustrator 18.1.1, SVG Export Plug-In . SVG Version: 6.00 Build 0)  -->
<!DOCTYPE svg PUBLIC "-//W3C//DTD SVG 1.1//EN" "http://www.w3.org/Graphics/SVG/1.1/DTD/svg11.dtd">
<svg version="1.1" id="Layer_1" xmlns="http://www.w3.org/2000/svg" xmlns:xlink="http://www.w3.org/1999/xlink" x="0px" y="0px"
	 viewBox="0 0 67.5 88.9" enable-background="new 0 0 67.5 88.9" xml:space="preserve">
<g>
	<path d="M67.5,42.8c0-1.7-1.4-3.1-3.1-3.1c-1.7,0-3.1,1.4-3.1,3.1c0,15.2-12.4,27.6-27.6,27.6C18.5,70.3,6.2,58,6.2,42.8
		c0-1.7-1.4-3.1-3.1-3.1S0,41.1,0,42.8C0,59.3,12,73.1,27.6,76v4.6H14v8.3h39.5v-8.3H39.8V76C55.6,73.1,67.5,59.3,67.5,42.8z"/>
	<path d="M32.3,63.7h2.9c10.7,0,19.4-8.7,19.4-19.4V19.4C54.6,8.7,45.9,0,35.2,0h-2.9C21.6,0,12.9,8.7,12.9,19.4v24.9
		C12.9,55,21.6,63.7,32.3,63.7z M19,19.4c0-7.3,6-13.3,13.3-13.3h2.9c7.3,0,13.3,6,13.3,13.3v24.9c0,7.3-6,13.3-13.3,13.3h-2.9
		c-7.3,0-13.3-6-13.3-13.3V19.4z"/>
</g>
<g>
</g>
<g>
</g>
<g>
</g>
<g>
</g>
<g>
</g>
<g>
</g>
<g>
</g>
<g>
</g>
<g>
</g>
<g>
</g>
<g>
</g>
<g>
</g>
<g>
</g>
<g>
</g>
<g>
</g>
</svg>
