<?xml version="1.0" encoding="utf-8"?>
<!-- Generator: Adobe Illustrator 18.1.1, SVG Export Plug-In . SVG Version: 6.00 Build 0)  -->
<!DOCTYPE svg PUBLIC "-//W3C//DTD SVG 1.1//EN" "http://www.w3.org/Graphics/SVG/1.1/DTD/svg11.dtd">
<svg version="1.1" id="Layer_1" xmlns="http://www.w3.org/2000/svg" xmlns:xlink="http://www.w3.org/1999/xlink" x="0px" y="0px"
	 viewBox="0 0 78 65.4" enable-background="new 0 0 78 65.4" xml:space="preserve">
<g>
	<path d="M78,0H46.6v38.1h14.5v21.2H22.4v-6.9h16.7V4.9H0v47.5h16.3v10c0,1.7,1.5,3.1,3.2,3.1h44.9c1.7,0,3.1-1.4,3.1-3.1V38.1H78V0
		z M6.3,11.2h26.5v35.1H6.3V11.2z M71.9,31.8h-19V6.3h19V31.8z"/>
	<rect x="19.3" y="15.3" width="7.9" height="6.1"/>
	<rect x="60.3" y="10.8" width="7.9" height="6.1"/>
	<rect x="11.6" y="24" width="15.7" height="6.1"/>
	<rect x="11.6" y="32.8" width="15.7" height="6.1"/>
</g>
<g>
</g>
<g>
</g>
<g>
</g>
<g>
</g>
<g>
</g>
<g>
</g>
<g>
</g>
<g>
</g>
<g>
</g>
<g>
</g>
<g>
</g>
<g>
</g>
<g>
</g>
<g>
</g>
<g>
</g>
</svg>
