<?xml version="1.0" encoding="utf-8"?>
<!-- Generator: Adobe Illustrator 18.1.1, SVG Export Plug-In . SVG Version: 6.00 Build 0)  -->
<!DOCTYPE svg PUBLIC "-//W3C//DTD SVG 1.1//EN" "http://www.w3.org/Graphics/SVG/1.1/DTD/svg11.dtd">
<svg version="1.1" id="Layer_1" xmlns="http://www.w3.org/2000/svg" xmlns:xlink="http://www.w3.org/1999/xlink" x="0px" y="0px"
	 viewBox="0 0 72.1 64.3" enable-background="new 0 0 72.1 64.3" xml:space="preserve">
<g>
	<path d="M58.3,51.2L32.4,26.7c2.2-5.9,0.9-12.8-3.9-17.6c-1-1-2.1-1.8-3.2-2.5c-4.5-2.8-10.1-3.2-15-1.1l0.1,0.1l-0.4,0.3l9.6,9.6
		c-0.4,0.9-1.3,2.7-3.5,4.9c-2.2,2.2-4,3.1-4.9,3.5l-9.6-9.6l-0.3,0.3l-0.1-0.1c-2.1,4.9-1.7,10.5,1.1,15C3.2,30.6,4,31.7,5,32.7
		c4.7,4.7,11.6,6,17.6,3.9l24.5,25.9c2.3,2.4,6.1,2.5,8.4,0.1l2.9-2.9C60.8,57.3,60.7,53.5,58.3,51.2z M53.4,57.5
		c-1.4,1.4-3.6,1.4-5,0c-1.4-1.4-1.4-3.6,0-5c1.4-1.4,3.6-1.4,5,0C54.8,53.9,54.8,56.1,53.4,57.5z"/>
	<path d="M71.4,9.5l-11-9.1c-0.8-0.6-1.9-0.5-2.5,0.3L40.4,21.9c-0.6,0.8-0.6,1.9,0.2,2.5l3.9,3.3L22.9,53.8l-2.2,1.9l-3.6,5.7
		l0.6,0.5l0,0.1l2.4,2l0.1-0.1l0.6,0.5l4.9-4.6l1.4-2.5l21.6-26.1l2.9,2.4c0.8,0.6,1.9,0.5,2.5-0.3L71.6,12
		C72.3,11.2,72.2,10.1,71.4,9.5z"/>
</g>
<g>
</g>
<g>
</g>
<g>
</g>
<g>
</g>
<g>
</g>
<g>
</g>
<g>
</g>
<g>
</g>
<g>
</g>
<g>
</g>
<g>
</g>
<g>
</g>
<g>
</g>
<g>
</g>
<g>
</g>
</svg>
