<?xml version="1.0" encoding="utf-8"?>
<!-- Generator: Adobe Illustrator 18.1.1, SVG Export Plug-In . SVG Version: 6.00 Build 0)  -->
<!DOCTYPE svg PUBLIC "-//W3C//DTD SVG 1.1//EN" "http://www.w3.org/Graphics/SVG/1.1/DTD/svg11.dtd">
<svg version="1.1" id="Layer_1" xmlns="http://www.w3.org/2000/svg" xmlns:xlink="http://www.w3.org/1999/xlink" x="0px" y="0px"
	 viewBox="0 0 91.3 91.3" enable-background="new 0 0 91.3 91.3" xml:space="preserve">
<g>
	<path d="M58.7,0v32.6h32.6V0H58.7z M84.8,26.1H65.2V6.5h19.6V26.1z"/>
	<rect x="13" y="13" width="6.5" height="6.5"/>
	<rect x="71.7" y="13" width="6.5" height="6.5"/>
	<polygon points="52.2,13 45.7,13 45.7,6.5 52.2,6.5 52.2,0 39.1,0 39.1,19.6 45.7,19.6 45.7,26.1 52.2,26.1 	"/>
	<path d="M32.6,32.6V0H0v32.6h6.5H32.6z M6.5,6.5h19.6v19.6H6.5V6.5z"/>
	<polygon points="0,39.1 0,52.2 6.5,52.2 6.5,45.7 13,45.7 13,39.1 	"/>
	<polygon points="45.7,45.7 52.2,45.7 52.2,32.6 45.7,32.6 45.7,26.1 39.1,26.1 39.1,39.1 45.7,39.1 	"/>
	<rect x="71.7" y="39.1" width="6.5" height="6.5"/>
	<rect x="84.8" y="39.1" width="6.5" height="6.5"/>
	<polygon points="65.2,52.2 65.2,58.7 71.7,58.7 71.7,65.2 78.3,65.2 78.3,52.2 71.7,52.2 71.7,45.7 65.2,45.7 65.2,39.1 58.7,39.1 
		58.7,45.7 52.2,45.7 52.2,52.2 	"/>
	<rect x="78.3" y="45.7" width="6.5" height="6.5"/>
	<path d="M0,58.7v32.6h32.6V58.7H0z M26.1,84.8H6.5V65.2h19.6V84.8z"/>
	<polygon points="52.2,52.2 45.7,52.2 45.7,45.7 39.1,45.7 39.1,39.1 19.6,39.1 19.6,45.7 13,45.7 13,52.2 26.1,52.2 26.1,45.7 
		32.6,45.7 32.6,52.2 39.1,52.2 39.1,58.7 45.7,58.7 45.7,65.2 52.2,65.2 	"/>
	<rect x="58.7" y="58.7" width="6.5" height="6.5"/>
	<rect x="84.8" y="52.2" width="6.5" height="13"/>
	<rect x="65.2" y="65.2" width="6.5" height="6.5"/>
	<rect x="78.3" y="65.2" width="6.5" height="6.5"/>
	<rect x="13" y="71.7" width="6.5" height="6.5"/>
	<polygon points="65.2,78.3 65.2,71.7 58.7,71.7 58.7,65.2 52.2,65.2 52.2,71.7 45.7,71.7 45.7,65.2 39.1,65.2 39.1,78.3 45.7,78.3 
		45.7,84.8 52.2,84.8 52.2,78.3 	"/>
	<polygon points="71.7,78.3 65.2,78.3 65.2,84.8 71.7,84.8 71.7,91.3 78.3,91.3 78.3,71.7 71.7,71.7 	"/>
	<rect x="84.8" y="71.7" width="6.5" height="6.5"/>
	<rect x="39.1" y="84.8" width="6.5" height="6.5"/>
	<rect x="52.2" y="84.8" width="13" height="6.5"/>
	<rect x="84.8" y="84.8" width="6.5" height="6.5"/>
</g>
<g>
</g>
<g>
</g>
<g>
</g>
<g>
</g>
<g>
</g>
<g>
</g>
<g>
</g>
<g>
</g>
<g>
</g>
<g>
</g>
<g>
</g>
<g>
</g>
<g>
</g>
<g>
</g>
<g>
</g>
</svg>
