<?xml version="1.0" encoding="utf-8"?>
<!-- Generator: Adobe Illustrator 18.1.1, SVG Export Plug-In . SVG Version: 6.00 Build 0)  -->
<!DOCTYPE svg PUBLIC "-//W3C//DTD SVG 1.1//EN" "http://www.w3.org/Graphics/SVG/1.1/DTD/svg11.dtd">
<svg version="1.1" id="Layer_1" xmlns="http://www.w3.org/2000/svg" xmlns:xlink="http://www.w3.org/1999/xlink" x="0px" y="0px"
	 viewBox="0 0 86.7 87.6" enable-background="new 0 0 86.7 87.6" xml:space="preserve">
<g>
	<path d="M44.1,0.2c-1.2-0.4-2.5-0.1-3.4,0.9L21.2,23.6H0V64h21.2l19.5,22.6c0.6,0.7,1.4,1.1,2.3,1.1c0.4,0,0.7-0.1,1.1-0.2
		c1.2-0.4,2-1.6,2-2.9V3.1C46.1,1.8,45.3,0.6,44.1,0.2z M6.1,29.8h13.5v28.1H6.1V29.8z M39.7,76.3L25.7,59.8v-32l14.1-16.5V76.3z"/>
	<path d="M53,78.5c-1.7,0-3.1-1.4-3.1-3.1s1.4-3.1,3.1-3.1c15.2,0,27.5-12.3,27.5-27.5S68.2,17.3,53,17.3c-1.7,0-3.1-1.4-3.1-3.1
		s1.4-3.1,3.1-3.1c18.6,0,33.6,15.1,33.6,33.6S71.6,78.5,53,78.5z"/>
	<path d="M54.6,65.6c-1.7,0-3.1-1.4-3.1-3.1s1.4-3.1,3.1-3.1c7.3,0,13.2-5.9,13.2-13.2v-2.9c0-7.3-5.9-13.2-13.2-13.2
		c-1.7,0-3.1-1.4-3.1-3.1S53,24,54.6,24C65.3,24,74,32.7,74,43.4v2.9C74,56.9,65.3,65.6,54.6,65.6z"/>
</g>
<g>
</g>
<g>
</g>
<g>
</g>
<g>
</g>
<g>
</g>
<g>
</g>
<g>
</g>
<g>
</g>
<g>
</g>
<g>
</g>
<g>
</g>
<g>
</g>
<g>
</g>
<g>
</g>
<g>
</g>
</svg>
