<?xml version="1.0" encoding="utf-8"?>
<!-- Generator: Adobe Illustrator 18.1.1, SVG Export Plug-In . SVG Version: 6.00 Build 0)  -->
<!DOCTYPE svg PUBLIC "-//W3C//DTD SVG 1.1//EN" "http://www.w3.org/Graphics/SVG/1.1/DTD/svg11.dtd">
<svg version="1.1" id="Layer_1" xmlns="http://www.w3.org/2000/svg" xmlns:xlink="http://www.w3.org/1999/xlink" x="0px" y="0px"
	 viewBox="0 0 80.3 59.5" enable-background="new 0 0 80.3 59.5" xml:space="preserve">
<g>
	<path d="M76.8,31.4c-1.4-2.4-4.6-3.2-7-1.8s-3.2,4.6-1.8,7c1.2,2,3,5.8,1.7,8.5c-1.3,2.6-5.5,4.1-11.2,4.2c-0.1,0-0.1,0-0.2,0
		c-7.1,0-15.9-2.3-24.1-6.3c-0.4-0.2-0.9-0.4-1.3-0.7l5.3-3.7L9.4,34l16.7,23.9l1.1-6.9c0.8,0.4,1.7,0.9,2.5,1.3
		c9.7,4.7,19.8,7.3,28.5,7.3c0.1,0,0.2,0,0.2,0c10-0.1,17.3-3.6,20.3-9.9C81.4,44.4,80.6,38,76.8,31.4z"/>
	<path d="M10.9,22c-0.9-2.3-1-4.2-0.3-5.7c1.3-2.6,5.5-4.1,11.2-4.2c0.1,0,0.1,0,0.2,0c5.5,0,12,1.4,18.5,3.9l-4.9,4.3l29.1,1.6
		L45.6,0l-0.4,7C37.2,3.7,29,2,21.8,2c-10,0.1-17.3,3.6-20.3,9.9c-2,4-2,8.7-0.1,13.7c0.8,2,2.7,3.3,4.8,3.3c0.6,0,1.2-0.1,1.8-0.3
		C10.6,27.6,11.9,24.7,10.9,22z"/>
</g>
<g>
</g>
<g>
</g>
<g>
</g>
<g>
</g>
<g>
</g>
<g>
</g>
<g>
</g>
<g>
</g>
<g>
</g>
<g>
</g>
<g>
</g>
<g>
</g>
<g>
</g>
<g>
</g>
<g>
</g>
</svg>
