<?xml version="1.0" encoding="utf-8"?>
<!-- Generator: Adobe Illustrator 18.1.1, SVG Export Plug-In . SVG Version: 6.00 Build 0)  -->
<!DOCTYPE svg PUBLIC "-//W3C//DTD SVG 1.1//EN" "http://www.w3.org/Graphics/SVG/1.1/DTD/svg11.dtd">
<svg version="1.1" id="Layer_1" xmlns="http://www.w3.org/2000/svg" xmlns:xlink="http://www.w3.org/1999/xlink" x="0px" y="0px"
	 viewBox="0 0 56 65.2" enable-background="new 0 0 56 65.2" xml:space="preserve">
<path d="M52.5,28.5c-2.1-0.2-4.3-0.4-6.4-0.6V16.8C46.1,5.2,38.9,0.1,28,0C17-0.1,10,3.8,10,15.3v0.1c0,3.5,7.6,3.2,7.6-0.3l0,0
	c0-2.8-0.9-7.8,10.5-7.8c11.4,0,10.7,9.4,10.7,12.4v7.7C26.9,26.8,15.2,27,3.6,28.5c-2,0-3.6,1.5-3.6,3.3v28.9
	c0,1.8,1.3,2.7,3.6,3.3c17.3,1.7,31.9,1.7,48.9,0c1.9-0.3,3.6-1.5,3.6-3.3V31.7C56,29.9,54.4,28.5,52.5,28.5z"/>
<g>
</g>
<g>
</g>
<g>
</g>
<g>
</g>
<g>
</g>
<g>
</g>
<g>
</g>
<g>
</g>
<g>
</g>
<g>
</g>
<g>
</g>
<g>
</g>
<g>
</g>
<g>
</g>
<g>
</g>
</svg>
