<?xml version="1.0" encoding="utf-8"?>
<!-- Generator: Adobe Illustrator 18.1.1, SVG Export Plug-In . SVG Version: 6.00 Build 0)  -->
<!DOCTYPE svg PUBLIC "-//W3C//DTD SVG 1.1//EN" "http://www.w3.org/Graphics/SVG/1.1/DTD/svg11.dtd">
<svg version="1.1" id="Layer_1" xmlns="http://www.w3.org/2000/svg" xmlns:xlink="http://www.w3.org/1999/xlink" x="0px" y="0px"
	 viewBox="0 0 84.2 84.3" enable-background="new 0 0 84.2 84.3" xml:space="preserve">
<g>
	<path d="M74.2,10C67.7,3.6,59.1,0,50,0S32.3,3.6,25.8,10c-6.5,6.5-10,15.1-10,24.2c0,7.3,2.3,14.3,6.5,20.1L0,76.6l7.6,7.6L29.9,62
		c5.8,4.2,12.7,6.5,20,6.5c9.1,0,17.7-3.6,24.2-10c6.5-6.5,10-15.1,10-24.2C84.2,25.1,80.7,16.5,74.2,10z M69.9,54.1
		c-5.3,5.3-12.4,8.2-19.9,8.2s-14.6-2.9-19.9-8.2c-5.3-5.3-8.2-12.4-8.2-19.9s2.9-14.6,8.2-19.9C35.4,9,42.5,6.1,50,6.1
		S64.6,9,69.9,14.3c5.3,5.3,8.2,12.4,8.2,19.9S75.2,48.8,69.9,54.1z"/>
	<polygon points="54.1,19.8 46.2,19.8 46.2,30.4 35.6,30.4 35.6,38.3 46.2,38.3 46.2,48.9 54.1,48.9 54.1,38.3 64.7,38.3 64.7,30.4 
		54.1,30.4 	"/>
</g>
<g>
</g>
<g>
</g>
<g>
</g>
<g>
</g>
<g>
</g>
<g>
</g>
<g>
</g>
<g>
</g>
<g>
</g>
<g>
</g>
<g>
</g>
<g>
</g>
<g>
</g>
<g>
</g>
<g>
</g>
</svg>
